<svg width="31" height="31" viewBox="0 0 31 31" fill="none" xmlns="http://www.w3.org/2000/svg">
<path opacity="0.5" d="M15.9746 3.34705C13.5023 3.34705 11.0856 4.08016 9.02999 5.45368C6.97437 6.82719 5.37222 8.77943 4.42612 11.0635C3.48003 13.3476 3.23248 15.8609 3.7148 18.2857C4.19711 20.7104 5.38762 22.9377 7.13578 24.6859C8.88394 26.434 11.1112 27.6246 13.536 28.1069C15.9607 28.5892 18.4741 28.3416 20.7582 27.3955C23.0422 26.4494 24.9945 24.8473 26.368 22.7917C27.7415 20.7361 28.4746 18.3193 28.4746 15.847C28.4746 14.2055 28.1513 12.5801 27.5231 11.0635C26.8949 9.54693 25.9742 8.16894 24.8134 7.00821C23.6527 5.84748 22.2747 4.92674 20.7582 4.29855C19.2416 3.67037 17.6161 3.34705 15.9746 3.34705ZM15.9746 25.847C13.9968 25.847 12.0634 25.2606 10.4189 24.1617C8.77442 23.0629 7.4927 21.5011 6.73582 19.6739C5.97894 17.8466 5.78091 15.836 6.16676 13.8961C6.55261 11.9563 7.50502 10.1745 8.90355 8.77598C10.3021 7.37745 12.0839 6.42505 14.0237 6.03919C15.9635 5.65334 17.9742 5.85138 19.8014 6.60825C21.6287 7.36513 23.1905 8.64685 24.2893 10.2913C25.3881 11.9358 25.9746 13.8692 25.9746 15.847C25.9746 18.4992 24.921 21.0428 23.0457 22.9181C21.1703 24.7935 18.6268 25.847 15.9746 25.847Z" fill="#3E45EB"/>
<path d="M25.9746 15.847H28.4746C28.4746 14.2055 28.1513 12.5801 27.5231 11.0635C26.8949 9.54693 25.9742 8.16894 24.8134 7.00821C23.6527 5.84748 22.2747 4.92674 20.7582 4.29855C19.2416 3.67037 17.6161 3.34705 15.9746 3.34705V5.84705C18.6268 5.84705 21.1703 6.90061 23.0457 8.77598C24.921 10.6513 25.9746 13.1949 25.9746 15.847Z" fill="#3E45EB"/>
</svg>
